<svg xmlns="http://www.w3.org/2000/svg" xmlns:xlink="http://www.w3.org/1999/xlink" width="48" height="48" viewBox="0 0 48 48">
  <defs>
    <clipPath id="clip-path">
      <path id="SVGID" d="M164.064,64.307a24,24,0,1,1-24-24A24,24,0,0,1,164.064,64.307Z" transform="translate(-116.064 -40.308)" fill="#f2f7f9"/>
    </clipPath>
  </defs>
  <g id="Group_7098" data-name="Group 7098" transform="translate(-116.064 -40.308)">
    <g id="Group_7094" data-name="Group 7094" transform="translate(116.064 40.308)">
      <path id="SVGID-2" data-name="SVGID" d="M164.064,64.307a24,24,0,1,1-24-24A24,24,0,0,1,164.064,64.307Z" transform="translate(-116.064 -40.308)" fill="#f2f7f9"/>
      <g id="Group_7093" data-name="Group 7093" clip-path="url(#clip-path)">
        <path id="Path_2721" data-name="Path 2721" d="M166.728,89.508a8.944,8.944,0,0,0-4.864-5.074,5.884,5.884,0,0,0-1.2-.5c-1.334-.3-2.656-.661-3.968-1.053a1.73,1.73,0,0,1-1.226-.427,19.981,19.981,0,0,1-2.9-1.235,1.273,1.273,0,0,1-.841-.389c-.166-.045-.3-.155-.469-.2a2.079,2.079,0,0,1-1.171-.743c-.182-.12-.375-.227-.546-.363a.731.731,0,0,1-.409-.53c-.08-.345-.183-.686-.276-1.027a7.23,7.23,0,0,1-.2-1.058c-.042-.2-.089-.369-.308-.428-.21-.106-.412-.005-.609.037-.4.088-.626-.039-.69-.468-.046-.308-.13-.619-.145-.924-.033-.68-.135-1.4.519-1.9A27,27,0,0,0,149.2,68.4c.1-.373.278-.688.775-.7a.7.7,0,0,0,.639-.54,18.445,18.445,0,0,1,1.022-2.871,12.4,12.4,0,0,0,.5-1.989c-.007-.14.031-.278.018-.418a.37.37,0,0,0-.08-.148.429.429,0,0,1-.074-.057c.013-.3.036-.594.026-.89a.854.854,0,0,0-.621-.868c-.375-.1-.443-.3-.421-.637.086-1.309.161-2.62.239-3.931a.14.14,0,0,0-.014-.122.071.071,0,0,0,0-.078c-.039-.4-.072-.795-.119-1.19a6.656,6.656,0,0,0-.706-2.747,9.562,9.562,0,0,0-3.966-3.718,17.2,17.2,0,0,0-4.505-1.39,9.652,9.652,0,0,0-8.584,2.208.3.3,0,0,1,.02.068h0a1.889,1.889,0,0,0-.663.716,5.745,5.745,0,0,1-1.187,1.437,3.208,3.208,0,0,0-1.157,2.838.491.491,0,0,0-.093.053.6.6,0,0,0-.1.145,13.315,13.315,0,0,0,.048,2.8,11.949,11.949,0,0,1,.3,2.412.751.751,0,0,1-.516.9,1.281,1.281,0,0,0-.836,1.157,4.083,4.083,0,0,0,.06,1.65c.212.77.436,1.535.684,2.294a6.252,6.252,0,0,1,.775,2.076,1.056,1.056,0,0,0,.71.906.9.9,0,0,1,.607.712c.123.56.332,1.094.5,1.639a3.372,3.372,0,0,1,.529,1.355.5.5,0,0,0,.039.156,5.413,5.413,0,0,1,.833,4.875c-.323.345-.643-.015-.964-.021s-.593-.036-.671.36c-.246.772-.379,1.575-.623,2.348a1.434,1.434,0,0,1-.748.932,15.375,15.375,0,0,1-2.725,1.121,8.53,8.53,0,0,1-2.1.845c-1.376.508-2.819.8-4.234,1.177a13.531,13.531,0,0,0-4.863,2.149,8.836,8.836,0,0,0-2.07,2.823c0,.5.029,1.008-.009,1.509-.028.39.081.483.476.482q25.644-.018,51.288-.011C166.893,90.005,166.829,89.772,166.728,89.508Z" transform="translate(-115.896 -41.093)" fill="#186d9a" fill-rule="evenodd"/>
      </g>
    </g>
  </g>
</svg>
