<svg id="error" xmlns="http://www.w3.org/2000/svg" width="80" height="80" viewBox="0 0 80 80">
  <g id="Group_3218" data-name="Group 3218">
    <g id="Group_3217" data-name="Group 3217">
      <path id="Path_2619" data-name="Path 2619" d="M40,0A40,40,0,1,0,80,40,39.977,39.977,0,0,0,40,0Zm0,73.75A33.75,33.75,0,1,1,73.75,40,33.731,33.731,0,0,1,40,73.75Z" fill="#f54e60"/>
    </g>
  </g>
  <g id="Group_3220" data-name="Group 3220" transform="translate(25.399 25.399)">
    <g id="Group_3219" data-name="Group 3219">
      <path id="Path_2620" data-name="Path 2620" d="M190.841,186.422l-9.266-9.266,9.266-9.266a3.125,3.125,0,1,0-4.419-4.419l-9.266,9.266-9.266-9.266a3.125,3.125,0,1,0-4.419,4.419l9.266,9.266-9.266,9.266a3.125,3.125,0,1,0,4.419,4.419l9.266-9.266,9.266,9.266a3.125,3.125,0,1,0,4.419-4.419Z" transform="translate(-162.555 -162.556)" fill="#f54e60"/>
    </g>
  </g>
</svg>
