<svg id="check" xmlns="http://www.w3.org/2000/svg" width="80" height="80" viewBox="0 0 80 80">
  <path id="Path_605" data-name="Path 605" d="M40,0A40,40,0,1,0,80,40,40.045,40.045,0,0,0,40,0Zm0,72.727A32.727,32.727,0,1,1,72.727,40,32.764,32.764,0,0,1,40,72.727Z" fill="#52b36c"/>
  <path id="Path_606" data-name="Path 606" d="M113.728,103.336l-20.571,20.57-9.428-9.428a3.636,3.636,0,1,0-5.143,5.142l12,12a3.636,3.636,0,0,0,2.571,1.065h0a3.637,3.637,0,0,0,2.571-1.065l23.142-23.142a3.636,3.636,0,0,0-5.143-5.143Z" transform="translate(-58.728 -77.478)" fill="#52b36c"/>
</svg>
