<svg xmlns="http://www.w3.org/2000/svg" width="62.012" height="55.326" viewBox="0 0 62.012 55.326">
  <g id="Group_3256" data-name="Group 3256" transform="translate(-612 -307)">
    <path id="warning_amber_black_24dp" d="M33.475,10.49l24.5,42.322H8.979l24.5-42.322M3.351,49.56a6.5,6.5,0,0,0,5.628,9.759H57.97A6.5,6.5,0,0,0,63.6,49.56L39.1,7.237a6.5,6.5,0,0,0-11.256,0Zm26.87-22.771V37.294a3.253,3.253,0,1,0,6.506,0V26.788a3.253,3.253,0,1,0-6.506,0Z" transform="translate(609.531 303.008)" fill="#fb6f01"/>
    <circle id="Ellipse_235" data-name="Ellipse 235" cx="3.5" cy="3.5" r="3.5" transform="translate(639.5 346)" fill="#fb6f01"/>
  </g>
</svg>
